<svg width="0" height="0" class="hidden">
  <symbol fill="none" xmlns="http://www.w3.org/2000/svg" viewBox="0 0 24 24" id="sun">
    <circle cx="12" cy="12" r="5" stroke="#fff" stroke-width="1.5"></circle>
    <path d="M12 2V4" stroke="#fff" stroke-width="1.5" stroke-linecap="round"></path>
    <path d="M12 20V22" stroke="#fff" stroke-width="1.5" stroke-linecap="round"></path>
    <path d="M4 12L2 12" stroke="#fff" stroke-width="1.5" stroke-linecap="round"></path>
    <path d="M22 12L20 12" stroke="#fff" stroke-width="1.5" stroke-linecap="round"></path>
    <path d="M19.7778 4.22266L17.5558 6.25424" stroke="#fff" stroke-width="1.5" stroke-linecap="round"></path>
    <path d="M4.22217 4.22266L6.44418 6.25424" stroke="#fff" stroke-width="1.5" stroke-linecap="round"></path>
    <path d="M6.44434 17.5557L4.22211 19.7779" stroke="#fff" stroke-width="1.5" stroke-linecap="round"></path>
    <path d="M19.7778 19.7773L17.5558 17.5551" stroke="#fff" stroke-width="1.5" stroke-linecap="round"></path>
  </symbol>
  <symbol   version="1.1" xmlns="http://www.w3.org/2000/svg" viewBox="0 0 32 32" id="moon">
    <title>moon</title>
    <path d="M29.223 24.178l-0.021-0.057c-0.116-0.274-0.383-0.463-0.694-0.463-0.104 0-0.202 0.021-0.292 0.059l0.005-0.002c-1.272 0.542-2.752 0.857-4.306 0.857-6.213 0-11.25-5.037-11.25-11.25 0-4.66 2.833-8.658 6.871-10.366l0.074-0.028 0.211-0.089c0.267-0.118 0.45-0.381 0.45-0.687 0-0.375-0.276-0.686-0.635-0.74l-0.004-0.001c-0.653-0.103-1.407-0.161-2.174-0.161-8.145 0-14.748 6.603-14.748 14.748s6.603 14.748 14.748 14.748c4.748 0 8.973-2.244 11.67-5.73l0.025-0.034c0.097-0.125 0.155-0.285 0.155-0.458 0-0.127-0.031-0.246-0.086-0.351l0.002 0.004zM22.518 28.24c-1.497 0.637-3.238 1.007-5.066 1.007-7.317 0-13.249-5.932-13.249-13.249 0-7.074 5.543-12.853 12.523-13.23l0.034-0.001c-3.395 2.326-5.594 6.183-5.594 10.554 0 7.043 5.709 12.752 12.752 12.752 0.85 0 1.681-0.083 2.485-0.242l-0.081 0.013c-1.081 0.976-2.339 1.783-3.716 2.364l-0.087 0.033z" fill="#fff"></path>
  </symbol>
  <symbol fill="none" xmlns="http://www.w3.org/2000/svg" viewBox="0 0 24 24" id="close">
    <g id="Menu / Close_MD">
      <path id="Vector" d="M18 18L12 12M12 12L6 6M12 12L18 6M12 12L6 18"  stroke-width="2" stroke-linecap="round" stroke-linejoin="round"></path>
    </g>
  </symbol>
  <symbol fill="none" xmlns="http://www.w3.org/2000/svg" viewBox="0 0 24 24" id="search">
    <path d="M15.7955 15.8111L21 21M18 10.5C18 14.6421 14.6421 18 10.5 18C6.35786 18 3 14.6421 3 10.5C3 6.35786 6.35786 3 10.5 3C14.6421 3 18 6.35786 18 10.5Z" stroke-width="2" stroke-linecap="round" stroke-linejoin="round"></path>
  </symbol>
</svg>